<svg width="50" height="50" viewBox="0 0 50 50" fill="none" xmlns="http://www.w3.org/2000/svg">
<path d="M27.0833 14.583H22.9167V22.9163H14.5833V27.083H22.9167V35.4163H27.0833V27.083H35.4167V22.9163H27.0833V14.583Z" fill="#197B30"/>
<path d="M25 4.16699C13.5125 4.16699 4.16667 13.5128 4.16667 25.0003C4.16667 36.4878 13.5125 45.8337 25 45.8337C36.4875 45.8337 45.8333 36.4878 45.8333 25.0003C45.8333 13.5128 36.4875 4.16699 25 4.16699ZM25 41.667C15.8104 41.667 8.33333 34.1899 8.33333 25.0003C8.33333 15.8107 15.8104 8.33366 25 8.33366C34.1896 8.33366 41.6667 15.8107 41.6667 25.0003C41.6667 34.1899 34.1896 41.667 25 41.667Z" fill="#197B30"/>
</svg>
