<svg width="252" height="252" viewBox="0 0 252 252" fill="none" xmlns="http://www.w3.org/2000/svg">
<path d="M252 31.5C252 23.1457 248.681 15.1335 242.774 9.22614C236.866 3.31874 228.854 -1.01173e-06 220.5 -1.37691e-06L31.5 -9.63836e-06C23.1457 -1.00035e-05 15.1335 3.31873 9.22614 9.22613C3.31875 15.1335 -1.01173e-06 23.1457 -1.37691e-06 31.5L-9.63836e-06 220.5C-1.00035e-05 228.854 3.31874 236.866 9.22613 242.774C15.1335 248.681 23.1457 252 31.5 252L220.5 252C228.854 252 236.866 248.681 242.774 242.774C248.681 236.866 252 228.854 252 220.5L252 31.5ZM181.125 133.875L89.8852 133.875L123.7 167.674C124.433 168.407 125.013 169.276 125.41 170.233C125.806 171.189 126.01 172.215 126.01 173.25C126.01 174.285 125.806 175.311 125.41 176.267C125.013 177.224 124.433 178.093 123.7 178.825C122.968 179.558 122.099 180.138 121.142 180.535C120.186 180.931 119.16 181.135 118.125 181.135C117.09 181.135 116.064 180.931 115.108 180.535C114.151 180.138 113.282 179.558 112.549 178.825L65.2995 131.575C64.5661 130.844 63.9843 129.975 63.5873 129.018C63.1903 128.061 62.9859 127.036 62.9859 126C62.9859 124.964 63.1903 123.938 63.5873 122.982C63.9843 122.025 64.5661 121.156 65.2995 120.424L112.549 73.1745C113.282 72.4423 114.151 71.8615 115.108 71.4652C116.064 71.069 117.09 70.865 118.125 70.865C119.16 70.865 120.186 71.069 121.142 71.4652C122.099 71.8615 122.968 72.4423 123.7 73.1745C125.179 74.6532 126.01 76.6588 126.01 78.75C126.01 79.7855 125.806 80.8108 125.41 81.7674C125.013 82.7241 124.433 83.5933 123.7 84.3255L89.8852 118.125L181.125 118.125C183.214 118.125 185.217 118.955 186.693 120.432C188.17 121.908 189 123.911 189 126C189 128.089 188.17 130.092 186.693 131.568C185.217 133.045 183.214 133.875 181.125 133.875V133.875Z" fill="#BC0023"/>
</svg>
