<svg width="252" height="252" viewBox="0 0 252 252" fill="none" xmlns="http://www.w3.org/2000/svg">
<path d="M3.75634e-07 220.5C2.76009e-07 228.854 3.31874 236.866 9.22614 242.774C15.1335 248.681 23.1457 252 31.5 252L220.5 252C228.854 252 236.866 248.681 242.774 242.774C248.681 236.866 252 228.854 252 220.5L252 31.5C252 23.1457 248.681 15.1335 242.774 9.22615C236.866 3.31875 228.854 2.72906e-06 220.5 2.62944e-06L31.5 3.75634e-07C23.1457 2.76009e-07 15.1335 3.31875 9.22614 9.22614C3.31874 15.1335 2.72906e-06 23.1457 2.62944e-06 31.5L3.75634e-07 220.5ZM70.875 118.125L162.115 118.125L128.3 84.3255C127.567 83.5933 126.987 82.7241 126.59 81.7674C126.194 80.8108 125.99 79.7855 125.99 78.75C125.99 77.7145 126.194 76.6892 126.59 75.7326C126.987 74.7759 127.567 73.9067 128.3 73.1745C129.032 72.4423 129.901 71.8615 130.858 71.4653C131.814 71.069 132.84 70.8651 133.875 70.8651C134.91 70.8651 135.936 71.069 136.892 71.4653C137.849 71.8615 138.718 72.4423 139.451 73.1745L186.701 120.425C187.434 121.156 188.016 122.025 188.413 122.982C188.81 123.939 189.014 124.964 189.014 126C189.014 127.036 188.81 128.061 188.413 129.018C188.016 129.975 187.434 130.844 186.701 131.576L139.451 178.826C138.718 179.558 137.849 180.138 136.892 180.535C135.936 180.931 134.91 181.135 133.875 181.135C132.84 181.135 131.814 180.931 130.858 180.535C129.901 180.138 129.032 179.558 128.299 178.826C126.821 177.347 125.99 175.341 125.99 173.25C125.99 172.215 126.194 171.189 126.59 170.233C126.987 169.276 127.567 168.407 128.299 167.675L162.115 133.875L70.875 133.875C68.7864 133.875 66.7834 133.045 65.3065 131.568C63.8297 130.092 63 128.089 63 126C63 123.911 63.8297 121.908 65.3065 120.432C66.7834 118.955 68.7864 118.125 70.875 118.125V118.125Z" fill="#BC0023"/>
</svg>
