<svg width="239" height="239" viewBox="0 0 239 239" fill="none" xmlns="http://www.w3.org/2000/svg">
<path d="M239 25.6562V213.344C239 227.479 227.535 238.938 213.393 238.938H25.6071C11.4645 238.938 0 227.479 0 213.344V25.6562C0 11.521 11.4645 0.0625 25.6071 0.0625H213.393C227.535 0.0625 239 11.521 239 25.6562ZM162.179 140.828C154.41 140.828 147.336 143.793 142.022 148.651L105.768 126.909C107.006 122.047 107.006 116.952 105.768 112.09L142.022 90.3487C147.336 95.2067 154.41 98.1719 162.179 98.1719C178.678 98.1719 192.054 84.8034 192.054 68.3125C192.054 51.8216 178.678 38.4531 162.179 38.4531C145.679 38.4531 132.304 51.8216 132.304 68.3125C132.304 70.8703 132.626 73.3529 133.232 75.7224L96.9774 97.4638C91.6645 92.6058 84.59 89.6406 76.8214 89.6406C60.3219 89.6406 46.9464 103.009 46.9464 119.5C46.9464 135.991 60.3219 149.359 76.8214 149.359C84.59 149.359 91.6645 146.394 96.978 141.537L133.232 163.278C132.614 165.7 132.303 168.189 132.304 170.688C132.304 187.179 145.68 200.547 162.179 200.547C178.679 200.547 192.054 187.179 192.054 170.688C192.054 154.197 178.678 140.828 162.179 140.828Z" fill="#BC0023"/>
</svg>
